<?xml version="1.0" encoding="utf-8"?>
<!-- Generator: Adobe Illustrator 16.0.0, SVG Export Plug-In . SVG Version: 6.00 Build 0)  -->
<!DOCTYPE svg PUBLIC "-//W3C//DTD SVG 1.1//EN" "http://www.w3.org/Graphics/SVG/1.1/DTD/svg11.dtd">
<svg version="1.1" id="Vrstva_1" xmlns="http://www.w3.org/2000/svg" xmlns:xlink="http://www.w3.org/1999/xlink" x="0px" y="0px"
	 width="142.336px" height="156.955px" viewBox="0 0 142.336 156.955" enable-background="new 0 0 142.336 156.955"
	 xml:space="preserve">
<g>
	<path fill="#FDF7F8" d="M67.348,148.362c-15.125-0.85-29.17-6.51-40.619-16.366c-0.627-0.54-1.575-0.47-2.116,0.157
		c-0.54,0.627-0.469,1.574,0.159,2.115c11.953,10.293,26.618,16.201,42.408,17.088c0.827,0.047,1.535-0.586,1.582-1.414
		C68.808,149.117,68.174,148.408,67.348,148.362z"/>
	<path fill="#FDF7F8" d="M141.393,68.663c-2.242-13.604-8.378-26.2-17.742-36.426C111.036,18.459,93.813,10.295,75.156,9.248
		c-0.825-0.047-1.534,0.586-1.581,1.413c-0.047,0.827,0.586,1.535,1.413,1.582c17.869,1.003,34.365,8.824,46.449,22.02
		c0.972,1.06,1.897,2.151,2.794,3.261c-0.105,0.14-0.197,0.307-0.257,0.514c-0.693,2.443-1.354,5.328-3.44,6.977
		c-1.521,1.202,0.487,3.431,1.998,2.237c2.127-1.68,3.12-4.315,3.885-6.875c3.508,4.844,6.348,10.103,8.463,15.655
		c-0.121,1.883-0.902,5.195-2.273,6.625c-2.13,2.22-3.807-0.679-4.208-3.914c-0.354-2.776-0.364-5.305-0.772-7.445
		c-0.109-1.21-0.812-1.331-1.012-1.388c-2.796-1.29-6.68,0.262-8.447,2.653c-1.658,2.245-2.641,5.254-2.549,8.171
		c-0.041,0.115,0.086,0.856,0.063,0.99c-0.502,2.81-1.246,7.888-5.528,5.783c-1.903-0.935-3.166-2.672-4.688-4.131
		c2.498-1.89,3.826-5.859,3.92-8.675c0.063-1.931-2.932-2.104-2.994-0.168c-0.063,1.837-1.221,6.449-3.521,6.892
		c-0.238-1.434-0.479-2.866-0.72-4.299c-0.385-2.307-0.767-4.613-1.151-6.918c-0.14-0.827-0.279-1.654-0.424-2.479
		c-0.035-0.206-0.072-0.411-0.107-0.617c-0.329-1.916-0.487-2.913,0.268-3.344c1.123-0.64,1.79-0.459,2.471,1.578
		c0.719,1.794,3.387,0.417,2.67-1.366c-2.218-5.538-9.338-3.88-8.541,2.226c0.728,5.581,1.67,11.164,2.674,16.727
		c-0.039,0.121-0.07,0.249-0.08,0.393c-0.194,2.636-1.01,5.374-2.604,7.508c-0.734,0.982-2.074,1.452-3.092,0.54
		c-0.963-0.864-1.661-5.849-1.811-6.676c-1.193-6.572-1.823-13.134-3.516-19.624c-0.486-1.864-3.424-1.243-2.933,0.634
		c1.08,4.146,1.849,8.322,2.485,12.542c-3.365-1.15-6.889,1.248-8.133,4.928c-0.875,2.583-0.473,5.637-0.682,8.326
		c-0.079,1.03-0.921,6.469-3.619,3.874c-0.882-0.848-1.525-1.268-1.785-3.833c-0.271-2.5-0.222-5.163-0.619-7.313
		c0.037-0.386-0.094-0.776-0.457-1.073c-0.156-0.153-0.345-0.259-0.549-0.318c-3.227-1.554-7.117,0.419-9.082,3.089
		c-1.841,2.501-2.383,5.934-1.723,9.005c0.119,1.19-3.367,7.36-5.154,3.257c-0.444-1.021-0.68-2.476-0.883-3.573
		c-0.482-2.608-0.988-5.212-1.492-7.816c-0.447-2.307-0.899-4.614-1.375-6.916c-0.341-1.393-0.381-2.803-0.119-4.232
		c1.385-2.974,3.186-0.041,2.84,1.752c0.031,1.321-0.375,2.644-0.717,3.909c-0.504,1.862,2.338,2.827,2.843,0.959
		c0.776-2.871,2.03-9.916-2.528-10.523c-6.347-0.847-5.797,6.06-4.945,10.261c1.156,5.693,1.519,12.146,3.707,17.544
		c0.723,1.781,3.069,3.842,5.166,3.194c2.278-0.701,3.495-2.103,4.364-3.944c2.052,2.568,6.073,3.548,8.354,0.677
		c0.644-0.81,1.123-1.75,1.486-2.766c0.466,0.683,1.038,1.287,1.814,1.725c1.735,0.979,3.896,0.596,5.324-0.545
		c1.102-0.877,1.577-2.686,1.854-4.145c2.603,3.018,6.708,4.486,9.582,0.38c0.12-0.174,0.229-0.35,0.332-0.525
		c0.018,0.015,0.026,0.032,0.045,0.046c1.493,1.339,3.681,1.507,5.452,0.669c1.613-0.765,2.768-2.342,3.576-4.162
		c0.109,0.6,0.222,1.203,0.334,1.802c0.358,1.9,3.293,1.267,2.934-0.634c-0.369-1.966-0.713-3.936-1.053-5.907
		c2.893,2.345,5.134,6.584,9.453,5.522c2.43-0.598,3.738-2.416,4.496-4.565c0.043,0.055,0.076,0.113,0.119,0.167
		c2.547,3.228,6.756,3.176,9.021-0.308c0.408-0.628,0.725-1.335,0.979-2.088c0.18,0.262,0.37,0.516,0.592,0.753
		c1.231,1.325,3.318,1.533,4.942,0.889c1.843-0.73,2.952-2.295,3.618-4.073c0.689,2.435,1.246,4.915,1.661,7.431
		c0.812,4.913,1.077,9.95,0.796,14.974c-1.391,24.76-16.145,46.837-38.507,57.619c-0.745,0.36-1.06,1.256-0.698,2.004
		c0.245,0.508,0.741,0.815,1.268,0.845c0.246,0.016,0.498-0.031,0.734-0.146c23.346-11.254,38.747-34.305,40.199-60.152
		C142.518,79.05,142.238,73.792,141.393,68.663z M65.867,76.938c-1.733-1.794-1.482-5.035-0.867-7.187
		c0.551-1.927,3.177-5.302,5.734-4.489c0.369,2.314,0.386,4.617,0.233,6.963C70.794,74.893,69.698,80.899,65.867,76.938z
		 M84.45,72.074c-1.064-1.128-1.595-2.48-1.59-4.052c-0.002-0.114-0.013-0.219-0.033-0.321c0.002-0.011,0-0.021,0-0.03
		c0.024-1.199,0.09-2.354,0.34-3.536c0.398-1.886,2.981-4.563,5.188-2.629c0.197,0.173,0.392,0.426,0.712,0.831
		c0.266,1.89,0.452,3.284,0.838,5.153c0.221,0.948,0.342,1.91,0.358,2.885C89.84,73.935,87.504,74.62,84.45,72.074z M122.079,66.006
		c-3.576,0.219-3.55-6.102-3.382-8.243c0.177-2.232,3.605-6.144,6.236-5.37C125.538,55.99,126.431,65.741,122.079,66.006z"/>
	<path fill="#FDF7F8" d="M3.11,76.482c1.403-24.98,16.338-47.146,38.979-57.847c0.749-0.354,1.069-1.249,0.715-1.998
		s-1.249-1.069-1.997-0.716C17.171,27.095,1.579,50.235,0.114,76.314c-0.818,14.572,2.774,28.822,10.391,41.21
		c0.267,0.435,0.721,0.686,1.195,0.713c0.295,0.016,0.598-0.055,0.869-0.223c0.706-0.434,0.926-1.355,0.492-2.063
		C5.767,104.088,2.326,90.438,3.11,76.482z"/>
	<path fill="#FDF7F8" d="M98.137,122.06c-2.709-13.896-5.418-27.795-8.126-41.691c-0.37-1.898-3.304-1.266-2.935,0.634
		c1.455,7.459,2.909,14.92,4.363,22.38c-0.456,1.896-1.188,3.814-2.65,5.066c-2.64,2.255-4.441-1.961-4.533-4.396
		c0-0.008-0.008-0.012-0.01-0.019c-0.119-2.481-0.486-4.935-0.598-6.808c0.104-0.51-0.066-1.049-0.673-1.386
		c-2.896-1.608-6.776,0.101-8.761,2.466c-1.902,2.268-2.793,5.143-2.694,8.016c-0.441,2.977-1.562,8.854-5.998,6.229
		c-1.553-0.919-2.669-2.261-3.958-3.435c2.46-1.91,3.777-5.857,3.863-8.635c0.059-1.931-2.936-2.104-2.996-0.168
		c-0.059,1.886-1.293,6.728-3.722,6.916c-0.616-3.238-1.232-6.479-1.845-9.719c-0.23-1.225-0.919-4.479-1.021-5.47
		c-0.383-1.875-0.333-2.804,0.209-3.22c0.431-0.328,2.003-0.848,2.531,1.453c0.719,1.795,3.386,0.418,2.67-1.364
		c-1.177-2.938-5.39-5.099-7.945-1.789c-1.623,2.103,0.022,7.846,0.623,11.022c1.021,5.41,1.885,9.678,2.572,13.283
		c-0.366,2.688-7.832,11.084-11.506,4.59c-1.483-2.625-1.643-6.242-0.204-8.885c0.728-1.338,5.576-4.143,5.934-1.273
		c0.238,1.918,3.17,1.274,2.933-0.633c-0.453-3.646-4.686-4.025-7.486-2.877c-4.381,1.799-5.764,6.273-5.203,10.709
		c0.137,1.08,0.404,2.102,0.783,3.037c-1.215,1.934-2.688,5.067-4.843,5.838c-3.096,1.104-4.747,0.446-6.101-1.756
		c3.903-2.878,7.991-7.23,7.346-11.871c-0.311-2.226-3.123-2.898-5.004-2.691c-3.265,0.361-5.554,2.598-6.641,5.332
		c-1.187,2.986-1.078,6.951,0.295,9.309c0.344,0.749-3.29,6.316-5.598,1.982c-0.492-0.924-1.391-6.735-1.866-9.198
		c-0.309-1.603-0.633-3.203-0.958-4.804c1.271-0.439,2.294-1.291,3.127-2.424c1.149-1.563-1.361-3.209-2.501-1.658
		c-0.376,0.512-0.793,0.83-1.244,1.043c-0.503-2.479-0.998-4.959-1.438-7.45c-0.337-1.903-3.27-1.269-2.933,0.634
		c0.441,2.488,0.923,4.969,1.416,7.445c-1.666,0.332-2.91,1.426-3.732,2.896c-0.942,1.68,1.556,3.344,2.501,1.655
		c0.522-0.933,1.108-1.331,1.833-1.55c0.903,4.461,1.523,8.129,2.315,12.609c0.477,2.703,1.98,5.598,5.055,5.771
		c3.337,0.188,4.656-2.146,6.178-4.062c0.998,0.947,2.233,1.664,3.729,2.02c5.373,1.275,8.214-2.439,10.79-6.27
		c1.564,1.723,3.792,2.717,6.603,2.514c3.249-0.236,5.573-2.688,7.262-5.348c0.266,1.393,0.542,2.721,0.822,4.026
		c0.005,0.029,0.003,0.058,0.009,0.088c0.67,3.291,1.34,6.583,2.01,9.875c0.445,2.187,5.278,2.908,6.881,3.214
		c2.833,0.539,5.771,0.705,8.699,0.553c0.94,6.265-1.188,12.524,2.012,18.361c2.101,3.831,5.951,5.15,10.08,4.682
		c4.81-0.547,7.015-4.891,7.259-9.237c0.344-6.172-5.018-10.858-6.873-16.372c-0.022-0.07-0.058-0.131-0.088-0.193
		C91.338,129.733,98.918,126.062,98.137,122.06z M28.913,118.008c-1.729-4.44,0.688-9.126,4.958-9.397
		c2.969-0.188-0.442,4.928-0.848,5.383C31.953,115.19,30.788,116.78,28.913,118.008z M74.954,102.739
		c0.496-1.723,3.412-5.133,5.769-4.613c0.153,2.314,0.35,4.628,0.366,6.952c0.02,2.185-1.338,8.726-5.254,5.301
		C73.747,108.554,74.27,105.114,74.954,102.739z M89.393,153.237c-4.631,3.133-9.053-1.363-10.23-5.514
		c-1.273-4.486,0.164-9.521-0.414-14.178c2.258-0.296,4.488-0.777,6.635-1.47C87.447,137.817,96.954,148.122,89.393,153.237z
		 M94.317,123.416c-4.22,6.188-15.273,7.563-22.015,7.468c-2.525-0.033-5.026-0.525-7.426-1.283
		c-0.622-0.195-1.223-0.453-1.82-0.713c-0.018-0.009-0.031-0.013-0.048-0.02c-0.168-0.826-0.336-1.653-0.504-2.479
		c-1.014-5.162-2.072-10.125-3.07-15.354c2.987,2.199,5.253,6.266,9.578,5.271c2.301-0.529,3.525-2.152,4.229-4.109
		c1.951,2.914,6.045,3.248,8.62,0.854c0.933-0.869,1.526-1.994,1.896-3.26c1.22,1.771,2.896,2.881,5.586,1.74
		c1.57-0.668,2.51-1.674,3.123-2.885c0.666,3.41,1.328,6.818,1.994,10.228C94.93,121.286,95.331,121.931,94.317,123.416z"/>
	<path fill="#FDF7F8" d="M42.57,40.202c0.784,5.024,2.574,10.806,2.798,15.884c0.107,2.417-4.25,0.328-4.901,0.126
		c-1.104-0.343-2.513-0.365-3.619-0.227c-2.232,0.28-4.488,2.596-5.184,4.625c-1.846,5.392,1.291,9.029,6.428,10.486
		c2.791,0.792,5.786,0.825,8.014,2.967c6.21,5.967-9.263,15.042-11.217,5.738c-0.397-1.891-3.331-1.261-2.933,0.636
		c1.403,6.678,9.738,7.692,14.676,4.092c6.442-4.697,4.103-13.547-3.35-15.294c-1.409-0.33-2.82-0.665-4.232-0.981
		c-2.417-0.541-4.963-1.71-5.024-4.871c-0.062-3.227,3.208-5.493,6.04-4.612c2.517,0.783,5.17,2.711,7.376,0.283
		c1.949-2.147,0.548-6.187,0.121-8.651c-0.371-2.14-0.81-4.268-1.219-6.4c4.917,1.76,13.165,1.037,15.423,0.748
		c4.64-0.592,12.819-2.717,16.608-7.169c1.258,6.272,2.519,12.544,3.777,18.817c0.381,1.896,3.314,1.264,2.934-0.635
		C83.526,48,81.967,40.237,80.409,32.474c0-0.008-0.006-0.014-0.007-0.022c0.003-0.22,0-0.441-0.015-0.667
		c-0.417-5.877-7.881-6.368-12.277-5.493c-1.896,0.378-1.265,3.31,0.633,2.933c3.732-0.743,11.246,0.228,7.748,5.714
		c-3.679,5.773-14.001,7.025-20.104,7.293c-3.125,0.138-6.565-0.141-9.406-1.536c-2.729-1.342,0.325-3.328,2.107-3.345
		c1.339-0.013,2.709,0.258,4.027,0.457c4.94,0.747,9.91,0.111,13.942-2.962c0.574-0.437,0.562-1.2,0.336-1.802
		c-1.468-3.916-2.735-8.343-3.007-12.51c-0.294-4.525,1.051-8.863-0.062-13.366C62.901,1.412,57.394-0.68,52.047,0.19
		c-6.167,1.003-8.039,7.207-7.08,12.63c0.495,2.8,2.467,5.188,4.077,7.428c2.595,3.61,4.489,7.984,4.943,12.439
		c0.195,1.92,3.127,1.271,2.933-0.636c-0.441-4.322-2.269-8.701-4.606-12.316c-1.619-2.504-3.541-4.632-4.413-7.55
		c-1.569-5.245,2.021-9.142,7.227-9.315c8.969-0.3,6.338,12.205,6.263,17.497c-0.06,4.207,1.389,8.755,2.867,12.789
		c-5.365,3.434-10.737,0.535-16.57,1.244c-2.971,0.362-4.537,1.69-5.042,4.625c-0.071,0.414-0.079,0.797-0.046,1.159
		C42.582,40.193,42.57,40.202,42.57,40.202z"/>
	<path fill="#FDF7F8" d="M42.261,93.612c-0.335,2.568,0.387,5.699,3.366,6.082c3.652,0.473,6.214-3.945,6.473-6.994
		c0.165-1.93-2.831-2.092-2.995-0.167c-0.152,1.793-1.251,3.745-3.113,4.161c-1.053,0.236-0.803-2.399-0.736-2.914
		C45.506,91.858,42.509,91.704,42.261,93.612z"/>
</g>
<circle fill="#FDF7F8" cx="-53.833" cy="68.166" r="14.167"/>
</svg>
